<?xml version="1.0" encoding="utf-8"?>
<!-- Generator: Adobe Illustrator 19.1.1, SVG Export Plug-In . SVG Version: 6.00 Build 0)  -->
<svg version="1.1" id="_x31_0" xmlns="http://www.w3.org/2000/svg" xmlns:xlink="http://www.w3.org/1999/xlink" x="0px" y="0px"
	 viewBox="0 0 512 512" style="enable-background:new 0 0 512 512;" xml:space="preserve">
<style type="text/css">
	.st0{fill:#FFFFFF;}
</style>
<g>
	<path class="st0" d="M87.887,246.417c-0.305-0.007-0.614-0.062-0.918-0.062c-0.086,0-0.164,0.02-0.25,0.02
		c-2.031,0.015-4.02,0.21-6.012,0.531c-0.398,0.066-0.793,0.129-1.191,0.206c-1.969,0.383-3.886,0.883-5.774,1.563
		c-0.274,0.098-0.531,0.218-0.801,0.324c-4.054,1.558-7.934,3.602-11.312,6.5c-8.547,7.324-13.504,17.957-13.574,29.16
		l-1.367,88.851c-0.07,13.145,5.531,25.36,15.445,33.692l0.719,0.644l50.496,40.797l-1.508,27.367
		c-0.574,10.559,3.95,20.977,11.996,27.797c5.168,4.313,11.489,7.039,18.172,7.832c1.219,0.141,2.438,0.215,3.664,0.215L184.028,512
		c17.738,0.07,32.394-13.215,33.972-30.887l2.09-22.281l0.535-5.29c1.617,0.59,3.226,1.07,4.839,1.559
		c0.465,0.171,0.981,0.328,1.426,0.511c0-0.019,0-0.035,0-0.05c0.054,0.015,0.109,0.035,0.16,0.05
		c0.074-10.633,0.504-21.262,1.363-32.035c0.648-8.546,1.582-17.168,2.734-25.785c1.074-7.758,2.442-15.446,3.949-22.988
		c2.371-11.274,5.242-22.266,8.622-32.969c2.082-6.535,4.308-12.93,6.75-19.18c2.153-5.602,4.524-11.203,7.039-16.59
		c4.813-10.489,10.129-20.547,16.019-29.954c4.809-7.832,9.985-15.301,15.442-22.266l4.309-1.297c1.367-0.5,2.805-0.93,4.238-1.507
		c0.074,0,0.218-0.07,0.289-0.07c1.438-0.504,2.801-1.078,4.164-1.657c1.438-0.57,2.805-1.218,4.168-1.793
		c0.356-0.214,0.719-0.289,1.078-0.504c1.293-0.644,2.582-1.293,3.805-2.008c1.293-0.648,2.586-1.293,3.808-2.011
		c0.574-0.289,1.078-0.649,1.578-1.004c1.942-1.152,3.809-2.301,5.606-3.523l0.07-0.07c4.527-3.164,8.836-6.61,12.785-10.344
		c0.145-0.141,0.215-0.214,0.359-0.359c1.867-1.797,3.665-3.59,5.317-5.457c1.004-1.153,2.012-2.371,2.946-3.52
		c0.714-0.934,1.578-1.797,2.222-2.73c0.863-1.082,1.652-2.226,2.515-3.379c0.578-0.859,1.153-1.648,1.653-2.511
		c0.645-0.859,1.222-1.797,1.797-2.73c0.793-1.219,1.508-2.516,2.226-3.805c0.145-0.219,0.215-0.43,0.363-0.649
		c0.356-0.644,0.79-1.367,1.074-2.086c0.434-0.715,0.789-1.434,1.149-2.153c17.691-7.73,35.367-10.55,51.554-8.164
		c0.449,0.086,0.93,0.114,1.371,0.211c-0.004-0.012-0.008-0.027-0.008-0.039c0.054,0.008,0.11,0.012,0.164,0.02
		c-1.942-17.098-5.313-33.398-9.984-48.699v-0.145c0-0.07,0-0.141-0.07-0.215c0.07-0.074,0.07-0.074,0-0.144v-1.074
		c-0.074-0.578-0.074-1.078-0.145-1.652c-0.074-0.719-0.145-1.508-0.214-2.157c-0.074-0.434-0.149-0.859-0.149-1.222
		c0-0.07-0.07-0.145-0.07-0.215v-0.214c-0.07-0.359-0.141-0.649-0.211-1.004c-0.074-0.434-0.218-0.938-0.289-1.367
		c-0.145-0.649-0.289-1.293-0.504-1.938c-0.144-0.648-0.359-1.293-0.504-1.942c-0.214-0.574-0.43-1.222-0.644-1.797
		c-0.215-0.644-0.43-1.222-0.719-1.867c-0.285-0.574-0.5-1.148-0.789-1.793c-0.863-1.867-1.871-3.738-3.02-5.461
		c-0.43-0.649-0.859-1.219-1.289-1.867c0,0,0,0-0.074-0.07c-0.504-0.718-1.078-1.512-1.722-2.156v-0.07
		c-15.156-34.84-36.633-63.282-60.266-82.965C305.273,10.992,279.559,0,256,0C208.808,0,153.14,43.89,122.828,113.637v0.07
		c-0.934,1.004-1.727,2.082-2.516,3.234c-0.285,0.43-0.574,0.859-0.859,1.289c-0.359,0.649-0.79,1.293-1.149,1.942
		c-0.218,0.359-0.434,0.789-0.574,1.148c-0.363,0.649-0.718,1.294-1.007,1.942c-0.29,0.645-0.504,1.219-0.79,1.793
		c-0.289,0.645-0.503,1.223-0.718,1.867c-0.215,0.574-0.434,1.223-0.645,1.797c-0.144,0.649-0.363,1.294-0.507,1.942
		c-0.286,1.004-0.5,1.938-0.715,2.942c-0.074,0.434-0.145,0.938-0.285,1.442c-0.074,0.5-0.145,1.004-0.219,1.578
		c-0.07,0.649-0.145,1.438-0.214,2.157c-0.074,0.574-0.074,1.074-0.145,1.652v1.145c0,0.074,0,0.074,0,0.074
		c-0.07,0.074-0.07,0.145-0.07,0.215v0.145c-3.782,12.566-6.762,25.843-8.75,39.629c-0.25,1.606-0.538,3.222-0.758,4.82
		c0.016-0.004,0.031-0.004,0.051-0.008c-0.008,0.059-0.02,0.11-0.027,0.164c11.64-1.972,24.07-1.242,36.762,2.059
		c0.21,0.058,0.418,0.106,0.629,0.164c1.758,0.469,3.515,1.004,5.281,1.57c2.442,0.808,4.887,1.644,7.352,2.66
		c0.019,0.027,0.042,0.043,0.042,0.082c0,0.074,0.074,0.145,0.145,0.215c0.07,0.149,0.07,0.289,0.141,0.434
		c0.074,0.141,0.145,0.359,0.218,0.504c0.07,0.211,0.215,0.43,0.29,0.574c0.21,0.57,0.5,1.148,0.718,1.652
		c0.07,0.215,0.141,0.359,0.282,0.574c0.363,0.789,0.718,1.578,1.152,2.367c0.215,0.434,0.43,0.863,0.645,1.363
		c0.218,0.434,0.504,0.863,0.718,1.297c0.145,0.211,0.219,0.359,0.29,0.5c0.359,0.793,0.789,1.508,1.218,2.226
		c0,0,0.074,0.074,0.074,0.145c0.144,0.289,0.359,0.574,0.504,0.863c0.214,0.289,0.43,0.645,0.574,0.934
		c0,0,0.074,0.074,0.074,0.145c0.141,0.07,0.211,0.285,0.286,0.359c0.359,0.644,0.714,1.222,1.078,1.797
		c0.43,0.645,0.86,1.363,1.363,2.008c0.5,0.789,1.004,1.507,1.578,2.297c0.363,0.434,0.649,0.938,1.008,1.371
		c0.718,1,1.508,2.007,2.297,2.941c0.218,0.29,0.43,0.504,0.574,0.79c1.082,1.293,2.156,2.586,3.305,3.808
		c1.437,1.578,2.945,3.09,4.527,4.598c0.359,0.359,0.714,0.789,1.078,1.148c3.95,3.809,8.258,7.254,12.782,10.344
		c0.074,0,0.074,0.07,0.074,0.07c1.867,1.297,3.808,2.515,5.746,3.664c0.504,0.285,0.934,0.574,1.438,0.863
		c1.29,0.718,2.66,1.438,3.95,2.156c1.222,0.57,2.441,1.289,3.734,1.863c0.363,0.215,0.789,0.363,1.222,0.578
		c1.078,0.5,2.226,1.004,3.375,1.434c0.718,0.359,1.508,0.718,2.371,1.008c0.934,0.359,1.867,0.718,2.874,1.074
		c0.79,0.29,1.578,0.578,2.371,0.864c0.93,0.289,1.863,0.644,2.797,0.934c0.938,0.289,1.942,0.574,2.875,0.863
		c0.718,0.214,1.508,0.43,2.297,0.644c0.07,0,0.215,0.074,0.359,0.074c0.145,0.074,0.29,0.074,0.434,0.074
		c0.934,0.285,1.867,0.5,2.73,0.714c8.043,10.918,15.298,22.77,21.762,35.489c-5.442,6.086-9.836,13.75-13.09,22.461
		c-0.718,1.82-1.441,3.637-2.062,5.543c-16.086-38.07-39.762-69.481-68.382-89.278c-17.387-12.07-34.91-18.39-50.57-18.39
		c-3.95,0-7.828,0.363-11.562,1.222c-1.293,0.285-2.586,0.649-3.954,1.074c-0.07,3.305-0.14,6.613-0.14,10.062
		c0,7.176,0.254,14.289,0.695,21.328c0.058,1.394,0.102,2.84,0.168,4.215c-2.782-1.133-5.77-1.989-8.836-2.418
		C91.02,246.367,89.453,246.453,87.887,246.417z M215.418,229.641c-0.074-0.074-0.145-0.074-0.219-0.145
		c-1.289-0.578-2.515-1.222-3.734-1.867c-1.222-0.649-2.515-1.222-3.66-1.867c-0.289-0.145-0.434-0.289-0.718-0.504
		c-13.578-7.902-24.641-19.176-31.969-32.828c-4.954-9.191-8.184-19.535-9.406-30.817c-3.449,2.95-7.687,4.672-12.355,4.672
		c-11.348,0-20.614-10.484-20.614-23.484c0-13.004,9.266-23.562,20.614-23.562c4.094,0,7.828,1.363,11.062,3.734
		c0.57,0.414,1.113,0.91,1.656,1.398c0.172,0.195,0.418,0.32,0.554,0.539c0-0.024,0.004-0.043,0.004-0.07
		c0.028,0.027,0.055,0.046,0.082,0.07h0.074c0-2.332,0.102-4.543,0.195-6.77c0.062-1.531,0.133-3.059,0.238-4.551
		c0.281-3.98,0.738-7.754,1.316-11.378c0.282-1.766,0.562-3.535,0.914-5.23c0.469-2.258,0.965-4.473,1.546-6.582
		c0.762-2.746,1.637-5.383,2.602-7.93c0.672-1.786,1.391-3.52,2.153-5.191c1.183-2.578,2.476-5.051,3.898-7.402
		c0.77-1.29,1.578-2.527,2.41-3.734c1.707-2.461,3.539-4.801,5.535-6.985c0.742-0.816,1.5-1.617,2.278-2.39
		c2.348-2.324,4.859-4.488,7.562-6.469c0.606-0.442,1.207-0.894,1.824-1.316c3.074-2.098,6.364-3.985,9.871-5.657
		c0.426-0.203,0.836-0.43,1.266-0.625c3.774-1.715,7.801-3.176,12.062-4.414c2.223-0.64,4.157,1.798,3.082,3.809
		c-1.222,2.297-2.367,4.594-3.305,6.754c-6.676,16.949-2.801,36.125,9.985,49.058c7.113,7.254,16.738,11.277,26.937,11.277
		c9.336,0,18.317-3.449,25.286-9.699c5.742-5.102,9.481-11.996,10.41-19.254c1.441-9.981-1.794-19.75-8.758-26.859
		c-4.957-4.887-11.706-7.684-18.675-7.684c-1.297,0-2.586,0.141-3.883,0.286c-10.774,1.578-18.676,8.042-21.187,17.382
		c-2.367,8.762,0.578,18.102,7.687,23.778c3.234,2.582,7.469,4.019,11.852,4.019h0.285c3.523,0,6.539-2.082,7.902-5.316
		c1.363-3.23,0.789-6.894-1.363-9.481l-2.516-0.359c-1.507,1.008-3.378,1.582-5.172,1.363c-0.214,0-0.359-0.07-0.574-0.144
		c-0.504-0.141-1.078-0.356-1.582-0.645c-0.144-0.07-0.285-0.215-0.43-0.286c-0.214-0.214-0.504-0.434-0.718-0.648
		c-2.297-2.371-3.161-5.89-2.153-9.122c1.149-3.378,4.09-5.75,8.114-6.465c1.742-0.339,3.473-0.374,5.133-0.129
		c0.004,0,0.008,0,0.011,0c4.985,0.734,9.332,3.954,11.379,8.746c1.293,3.234,1.722,6.754,1.078,10.274
		c-0.645,3.734-2.59,7.254-5.461,9.984c-9.551,8.981-24.711,8.691-33.977-0.574c-11.778-11.996-12.282-31.246-1.074-43.816
		c1.867-2.012,3.95-4.023,6.176-5.89c3.519-2.946,9.05-4.813,13.648-4.528c12.426,0.364,24.348,2.231,35.195,6.184
		c0.36,0.141,0.79,0.285,1.149,0.426c0.574,0.219,1.078,0.434,1.582,0.649c0.789,0.289,1.582,0.574,2.297,0.934
		c0.144,0.074,0.218,0.144,0.359,0.144c16.234,7.325,30.382,20.258,38,42.02v0.214c0.57,1.508,1,3.016,1.508,4.598
		c0,0.074,0,0.215,0.07,0.29c0.43,1.578,0.863,3.156,1.218,4.808c0.074,0.145,0.074,0.215,0.074,0.29
		c1.847,8.062,2.863,17.274,3.023,27.523c0,0.875,0.043,1.715,0.027,2.602c0.008-0.012,0.023-0.019,0.035-0.031
		c0,0.027,0,0.05,0,0.074c0,0,0.074,0,0.074-0.07v0.141c3.594-3.516,8.332-5.672,13.434-5.672c11.347,0,20.613,10.558,20.613,23.562
		c0,13-9.266,23.484-20.613,23.484c-3.879,0-7.473-1.218-10.562-3.374c-0.489-0.367-0.981-0.707-1.465-1.106
		c-0.047-0.066-0.137-0.094-0.172-0.172c0,0.012-0.008,0.027-0.008,0.039c-0.023-0.02-0.05-0.035-0.078-0.059v0.074l-0.07-0.074
		c-0.934,8.555-3.016,16.524-6.035,23.922c-0.356,0.718-0.719,1.363-1.074,2.082c-0.649,1.653-1.438,3.234-2.226,4.813
		c-7.328,13.504-18.321,24.785-31.825,32.754c-0.285,0.145-0.574,0.363-0.863,0.504c-1.218,0.719-2.507,1.293-3.734,1.942
		c-1.218,0.645-2.441,1.289-3.73,1.867c-0.148,0.07-0.289,0.145-0.434,0.218c-12.21,5.454-25.859,8.402-40.367,8.402
		C241.418,238.117,227.625,235.101,215.418,229.641z M97.402,284.805l0.574,61.988c0.145,6.68,3.16,13,8.187,17.313l0.79,0.57
		l34.766,27.082c2.011,1.582,4.382,2.442,6.894,2.512c2.016,0,3.953-0.43,5.82-1.434l2.657-1.438c3.16-1.726,5.316-4.668,5.89-8.262
		c0.648-3.52-0.359-7.039-2.73-9.695l-17.023-19.035c-2.298-2.512-3.231-5.891-2.727-9.266c0.5-3.305,2.512-6.25,5.462-7.902
		c0.355-0.29,0.859-0.356,1.289-0.29c0.359,0,0.789,0.219,1.148,0.434l39.004,37.278c7.114,6.754,10.633,16.234,9.695,26.004
		l-3.59,39.074l-3.594,38.789c-0.286,3.015-2.726,5.242-5.742,5.242l-38.359-0.145c-1.722,0-3.016-0.789-3.734-1.363
		c-1.367-1.219-2.156-2.942-2.012-4.738l1.508-28.805c0.434-7.902-2.871-15.586-8.902-20.687l-52.078-42.164
		c-3.734-3.09-5.676-7.394-5.676-11.926l1.367-88.997c0-3.086,1.363-5.957,3.66-7.972c0.59-0.5,1.222-0.926,1.89-1.282
		c0,0,0.008-0.008,0.016-0.012c2.008-1.066,4.312-1.472,6.57-1.148c1.942,0.289,3.734,1.152,5.242,2.371
		C95.961,278.913,97.328,281.789,97.402,284.805z"/>
	<path class="st0" d="M220.531,117.07c-4.828,0-8.77,3.902-8.77,8.77c0,4.828,3.942,8.762,8.77,8.762c4.863,0,8.77-3.934,8.77-8.762
		C229.3,120.973,225.394,117.07,220.531,117.07z"/>
	<path class="st0" d="M290.32,134.601c4.832,0,8.766-3.934,8.766-8.762c0-4.867-3.934-8.77-8.766-8.77
		c-4.867,0-8.77,3.902-8.77,8.77C281.551,130.668,285.453,134.601,290.32,134.601z"/>
	<path class="st0" d="M257.777,201.929c0.222-0.035,0.446-0.066,0.641-0.066c0.347-0.066,0.672-0.129,0.992-0.222
		c0.094,0,0.191-0.035,0.317-0.062c0.386-0.066,0.769-0.196,1.125-0.325c0.285-0.062,0.574-0.156,0.863-0.32
		c0.449-0.129,0.828-0.317,1.246-0.512c0.801-0.378,1.602-0.828,2.336-1.34c1.278-0.898,2.462-1.988,3.458-3.234
		c0.606-0.738,1.148-1.602,1.629-2.43c0.226-0.484,0.449-0.93,0.672-1.414c0.414-0.958,0.738-1.981,0.93-3.035
		c0.031-0.16,0.066-0.352,0.098-0.543c0-0.098,0.031-0.164,0.031-0.258c0.031-0.254,0.062-0.512,0.094-0.766
		c0.062-0.578,0.098-1.125,0.098-1.668c0-0.508-0.035-1.055-0.098-1.535c-0.062-0.543-0.125-1.086-0.222-1.602v-0.031
		c-0.129-0.637-0.832-0.961-1.438-0.699c-0.578,0.222-1.187,0.414-1.793,0.637c-0.418,0.133-0.801,0.258-1.219,0.351
		c-0.992,0.29-1.98,0.543-3.074,0.738c-0.636,0.129-1.308,0.254-1.98,0.352c-0.512,0.098-0.992,0.129-1.504,0.191
		c-1.598,0.191-3.297,0.254-4.992,0.254c-1.726,0-3.359-0.062-4.958-0.254c-0.511-0.062-1.023-0.094-1.503-0.191
		c-0.707-0.098-1.375-0.223-2.02-0.352c-1.054-0.195-2.078-0.449-3.07-0.738c-0.414-0.094-0.832-0.218-1.214-0.351
		c-0.641-0.191-1.215-0.414-1.793-0.637c-0.13-0.066-0.254,0-0.383,0h-0.035c-0.477,0-0.89,0.222-0.992,0.699v0.031
		c-0.125,0.515-0.188,1.058-0.222,1.602c-0.063,0.48-0.094,1.027-0.094,1.535c0,0.543,0.031,1.09,0.094,1.668
		c0,0.254,0.034,0.511,0.066,0.766c0,0.094,0,0.16,0.031,0.258c0.031,0.191,0.062,0.383,0.125,0.543
		c0.195,1.054,0.515,2.078,0.93,3.035c0.195,0.484,0.418,0.93,0.672,1.414c0.449,0.828,0.992,1.692,1.602,2.43
		c1.246,1.598,2.781,2.946,4.542,3.906c0.418,0.254,0.832,0.477,1.246,0.668c0.383,0.195,0.77,0.352,1.187,0.512
		c0.29,0.129,0.641,0.258,0.958,0.32c0.355,0.129,0.738,0.258,1.121,0.325c0.098,0.027,0.191,0.062,0.32,0.062
		c0.352,0.094,0.703,0.156,1.086,0.222c0.164,0,0.32,0.031,0.515,0.031c0.348,0.066,0.668,0.098,1.024,0.098
		c0.156,0.031,0.254,0.031,0.414,0.031c0.383,0,0.766,0,1.153-0.031C257.105,201.992,257.457,201.961,257.777,201.929z"/>
	<path class="st0" d="M245.871,165.066c2.446,3.015,6.176,4.738,10.129,4.738c3.95,0,7.684-1.723,10.126-4.738l5.675-6.898
		c2.012-2.442,3.09-5.387,3.09-8.328c0-1.942-0.43-3.813-1.294-5.676c-2.226-4.672-6.824-7.543-11.922-7.543h-11.351
		c-5.098,0-9.696,2.871-11.926,7.543c-2.152,4.668-1.507,10.054,1.797,14.004L245.871,165.066z M248.887,149.121
		c0.218-0.434,0.648-0.934,1.438-0.934h11.351c0.789,0,1.218,0.5,1.434,0.934c0.145,0.43,0.289,1.004-0.215,1.649l-5.675,6.898
		c-0.43,0.5-0.93,0.574-1.219,0.574c-0.289,0-0.789-0.074-1.218-0.574l-5.676-6.898C248.601,150.125,248.742,149.55,248.887,149.121
		z"/>
	<path class="st0" d="M255.933,208.519C255.672,208.984,256.464,207.656,255.933,208.519L255.933,208.519z"/>
	<path class="st0" d="M411.367,217.355c-1.152-0.359-2.23-0.648-3.378-0.93c-3.661-0.797-7.469-1.152-11.418-1.152
		c-15.301,0-32.613,6.175-49.778,18.102c-17.242,11.926-32.683,28.011-45.898,47.332c-7.546,11.062-14.367,23.202-20.254,36.133
		c-3.742,8.117-7.114,16.449-10.062,25.14c-6.461,18.672-11.203,38.574-14.078,59.258v0.214c-0.355,2.446-0.644,4.887-0.93,7.328
		c-1.797,15.297-2.805,30.458-2.875,45.398c-0.07,1.73-0.066,3.527,0,5.266c0,0.008,0,0.02,0,0.031c0.004,0.051,0,0.106,0,0.161
		c1.078,0,2.227,0.07,3.305,0.07c1.078,0,2.082,0,3.09-0.07c2.367-0.07,4.668-0.219,7.035-0.434
		c6.324-0.645,12.57-1.794,18.605-3.516c1.942-0.547,3.805-1.176,5.645-1.824c0.351-0.102,0.684-0.203,1.039-0.305L294,481.113
		c1.578,17.672,16.23,30.958,33.973,30.887l38.355-0.145c1.219,0,2.442-0.074,3.664-0.215c6.68-0.793,13.004-3.519,18.172-7.832
		c8.047-6.82,12.57-17.238,11.996-27.797l-1.507-27.367l50.496-40.797l0.714-0.644c9.918-8.332,15.52-20.547,15.45-33.692
		l-1.367-88.851c-0.07-11.203-5.027-21.836-13.504-29.16c-3.418-2.906-7.328-4.957-11.406-6.52c-0.254-0.094-0.496-0.21-0.754-0.301
		c-1.898-0.683-3.828-1.187-5.813-1.57c-0.39-0.074-0.774-0.137-1.168-0.203c-1.992-0.321-3.988-0.52-6.023-0.531
		c-0.082,0-0.164-0.02-0.25-0.02c-0.304,0-0.613,0.055-0.922,0.062c-1.566,0.035-3.125-0.05-4.695,0.172
		c-2.637,0.367-5.153,1.098-7.625,2.004c-0.434,0.137-0.832,0.234-1.278,0.379c0.645-8.387,0.93-16.914,0.93-25.508
		C411.437,221.378,411.437,219.367,411.367,217.355z M414.023,346.793l0.574-61.988c0.07-3.016,1.438-5.891,3.738-7.902
		c1.508-1.219,3.301-2.082,5.242-2.371c2.258-0.324,4.562,0.082,6.57,1.148c0,0,0.007,0.008,0.015,0.012
		c0.664,0.355,1.297,0.782,1.887,1.282c2.301,2.015,3.664,4.886,3.664,7.972l1.367,88.997c0,4.531-1.942,8.835-5.676,11.926
		l-52.078,42.164c-6.031,5.102-9.336,12.785-8.902,20.687l1.508,28.805c0.141,1.797-0.648,3.519-2.011,4.738
		c-0.719,0.574-2.012,1.363-3.738,1.363l-38.356,0.145c-3.015,0-5.461-2.227-5.746-5.242l-3.594-38.715l-3.59-39.148
		c-0.934-9.77,2.657-19.25,9.695-26.004l39.078-37.278c0.286-0.214,0.719-0.434,1.078-0.434c0.43-0.066,0.934,0,1.289,0.29
		c2.95,1.652,4.957,4.598,5.461,7.902c0.574,3.374-0.43,6.754-2.73,9.266l-17.019,19.035c-2.371,2.656-3.379,6.175-2.734,9.695
		c0.578,3.594,2.734,6.535,5.894,8.262l2.656,1.438c1.867,1.004,3.805,1.434,5.817,1.434c2.515-0.07,4.886-0.93,6.894-2.512
		l34.77-27.082l0.789-0.57C410.863,359.793,413.879,353.473,414.023,346.793z"/>
</g>
</svg>
