<?xml version="1.0" encoding="utf-8"?>
<!-- Generator: Adobe Illustrator 19.1.1, SVG Export Plug-In . SVG Version: 6.00 Build 0)  -->
<svg version="1.1" id="_x31_0" xmlns="http://www.w3.org/2000/svg" xmlns:xlink="http://www.w3.org/1999/xlink" x="0px" y="0px"
	 viewBox="0 0 512 512" style="enable-background:new 0 0 512 512;" xml:space="preserve">
<style type="text/css">
	.st0{fill:#FFFFFF;}
</style>
<g>
	<path class="st0" d="M431.519,8.936H80.481C36.102,8.936,0,45.037,0,89.416v333.168c0,44.374,36.102,80.48,80.481,80.48h351.038
		c44.375,0,80.481-36.106,80.481-80.48V89.416C512,45.037,475.894,8.936,431.519,8.936z M45,188.604h420.871H467v233.981
		c0,19.594-15.886,35.476-35.481,35.476H80.481C60.883,458.06,45,442.178,45,422.584V188.604z M467,153.604H45V89.416
		c0-19.594,15.883-35.481,35.481-35.481h351.038c19.594,0,35.481,15.886,35.481,35.481V153.604z"/>
	<circle class="st0" cx="291.078" cy="108.524" r="14.646"/>
	<path class="st0" d="M352.324,93.877c-8.09,0-14.644,6.558-14.644,14.648c0,8.086,6.554,14.645,14.644,14.645
		c8.09,0,14.645-6.558,14.645-14.645C366.969,100.436,360.414,93.877,352.324,93.877z"/>
	<path class="st0" d="M413.57,93.877c-8.09,0-14.649,6.558-14.649,14.648c0,8.086,6.559,14.645,14.649,14.645
		c8.086,0,14.645-6.558,14.645-14.645C428.215,100.436,421.656,93.877,413.57,93.877z"/>
	<path class="st0" d="M239.117,411.72c2.047,2.043,5.364,2.043,7.406,0l118.77-118.766c17.226-17.226,20.375-43.191,9.469-63.625
		c-0.008-0.011-0.015-0.027-0.023-0.043c-2-3.738-4.516-7.262-7.457-10.542c-0.606-0.676-1.192-1.367-1.829-2.024
		c-0.011-0.019-0.035-0.042-0.046-0.066l-0.008,0.008c-0.027-0.031-0.05-0.062-0.082-0.094v0.004
		c-0.008-0.012-0.016-0.02-0.024-0.031l-120.05,120.05c-1.34,1.336-3.504,1.336-4.84,0l-33.098-33.098
		c-1.153-1.152-2.438-2.082-3.668-3.109c-0.215-0.18-0.426-0.367-0.641-0.543c-4.027-3.266-8.379-5.863-12.98-7.797
		c-0.278-0.118-0.559-0.219-0.836-0.332c-3.031-1.215-6.126-2.149-9.29-2.794c-0.086-0.015-0.168-0.038-0.254-0.054
		c-12.098-2.398-24.832-0.778-35.957,5.156c-0.012,0.008-0.024,0.02-0.039,0.028c-3.805,2.031-7.39,4.602-10.719,7.613
		c-0.617,0.555-1.25,1.09-1.851,1.672c-0.023,0.012-0.043,0.039-0.066,0.047l0.004,0.007c-0.027,0.028-0.058,0.051-0.086,0.078
		v0.004c-0.007,0.008-0.019,0.015-0.031,0.023L239.117,411.72z"/>
</g>
</svg>
