<?xml version="1.0" encoding="utf-8"?>
<!-- Generator: Adobe Illustrator 18.1.1, SVG Export Plug-In . SVG Version: 6.00 Build 0)  -->
<!DOCTYPE svg PUBLIC "-//W3C//DTD SVG 1.1//EN" "http://www.w3.org/Graphics/SVG/1.1/DTD/svg11.dtd">
<svg version="1.1" id="_x31_0" xmlns="http://www.w3.org/2000/svg" xmlns:xlink="http://www.w3.org/1999/xlink" x="0px" y="0px"
	 viewBox="0 0 512 512" style="enable-background:new 0 0 512 512;" xml:space="preserve">
<style type="text/css">
	.st0{fill:#FFFFFF;}
</style>
<g>
	<path class="st0" d="M354.786,354.824c-33.329,0-60.446,27.118-60.446,60.446c0,24.981,15.328,46.297,37,55.488
		c0.738,0.325,1.418,0.746,2.176,1.039c-8.157,12.554-22.274,20.89-38.325,20.89c-25.199,0-45.703-20.504-45.703-45.703v-69.523
		h13.118l0.039,0.004v-0.004h0.16V346.45c54.371-14.633,97.117-79.227,117.488-143.856c0.195-0.617,0.43-1.254,0.618-1.863v-0.004
		c0.015-0.05,0.031-0.098,0.046-0.148l-9.453-2.914c7.375-23.942,11.394-47.164,11.394-66.191c0-59.902-26.531-95.188-80.832-107.59
		V6.375c0-3.508-2.867-6.375-6.375-6.375H273.77c-7.969,0-14.488,6.519-14.488,14.488V46.07c0,7.969,6.519,14.488,14.488,14.488
		h21.922c3.508,0,6.375-2.867,6.375-6.375v-5.258l0.035-1.21c39.676,10.835,57.621,37.281,57.621,83.758
		c0,17.5-3.566,37.878-9.851,58.578c-0.094,0.298-0.152,0.582-0.246,0.879l-9.058-2.789l-0.062-0.02l0,0l-0.152-0.046
		c-2.918,9.476-6.481,19.046-10.566,28.43c-17.883,16.316-52.379,27.054-89.989,27.054c-37.578,0-72.011-10.703-89.867-26.973
		c-4.098-9.41-7.672-19.007-10.598-28.511l-9.293,2.859c-6.457-21.008-10.098-41.711-10.098-59.461
		c0-31.68,8.359-54.035,26.234-68.5c0.164-0.133,0.309-0.282,0.477-0.414c1.32-1.05,2.726-2.023,4.152-2.988
		c0.363-0.246,0.699-0.523,1.07-0.766c1.176-0.766,2.442-1.457,3.683-2.168c0.692-0.394,1.34-0.824,2.051-1.199
		c0.781-0.414,1.629-0.774,2.434-1.168c1.27-0.618,2.511-1.258,3.843-1.828c0.051-0.02,0.11-0.039,0.161-0.058
		c4.203-1.79,8.718-3.329,13.554-4.63v6.43c0,3.508,2.867,6.375,6.371,6.375h21.926c7.969,0,14.488-6.519,14.488-14.488V14.488
		C220.386,6.519,213.867,0,205.898,0h-21.926c-3.504,0-6.371,2.867-6.371,6.375v17.508C123.301,36.285,96.77,71.574,96.77,131.473
		c0,19.031,4.019,42.254,11.394,66.195l-9.262,2.855l-0.027,0.004v0.004l-0.153,0.047c20.11,65.289,63.211,131.074,118.141,145.867
		v31.015h13.313v69.523c0,35.852,29.164,65.016,65.015,65.016c25.555,0,47.649-14.855,58.27-36.355
		c0.442,0.011,0.879,0.07,1.325,0.07c33.328,0,60.445-27.118,60.445-60.446S388.114,354.824,354.786,354.824z M354.786,444.817
		c-16.294,0-29.547-13.258-29.547-29.547c0-16.293,13.254-29.547,29.547-29.547c16.293,0,29.546,13.254,29.546,29.547
		C384.332,431.558,371.078,444.817,354.786,444.817z M234.328,306.672c-2.453-0.313-4.902-0.84-7.343-1.551
		c-0.508-0.144-1.012-0.281-1.524-0.445c-19.886-6.454-39.09-25.477-54.976-49.742c19.902,7.535,43.71,11.797,69.312,11.797
		c21.168,0,40.981-3.05,58.52-8.328c3.648-1.062,7.328-2.09,10.801-3.352c-15.875,24.211-35.043,43.18-54.898,49.626
		c-0.504,0.164-1.004,0.297-1.508,0.441c-2.446,0.715-4.894,1.238-7.356,1.555c-0.668,0.086-1.335,0.145-2.003,0.199
		c-1.172,0.098-2.34,0.195-3.512,0.195c-1.168,0-2.34-0.098-3.508-0.191C235.664,306.82,234.996,306.758,234.328,306.672z"/>
</g>
</svg>
