<?xml version="1.0" encoding="utf-8"?>
<!-- Generator: Adobe Illustrator 19.1.1, SVG Export Plug-In . SVG Version: 6.00 Build 0)  -->
<svg version="1.1" id="_x31_0" xmlns="http://www.w3.org/2000/svg" xmlns:xlink="http://www.w3.org/1999/xlink" x="0px" y="0px"
	 viewBox="0 0 512 512" style="enable-background:new 0 0 512 512;" xml:space="preserve">
<style type="text/css">
	.st0{fill:#FFFFFF;}
</style>
<g>
	<path class="st0" d="M497.133,29.554H122.91c-8.199,0-14.871,6.664-14.871,14.863V238.39c0,8.195,6.672,14.863,14.871,14.863
		h374.223c8.191,0,14.867-6.668,14.867-14.863V44.417C512,36.218,505.324,29.554,497.133,29.554z M136.117,168.944v-55.082
		c28.828-4.684,51.551-27.402,56.23-56.234h235.344c4.68,28.832,27.398,51.55,56.234,56.234v55.082
		c-28.836,4.68-51.554,27.399-56.234,56.231H192.347C187.668,196.343,164.945,173.624,136.117,168.944z"/>
	<polygon class="st0" points="284.195,117.429 295.469,132.136 295.781,132.542 295.886,132.827 271.695,132.827 271.695,142.913 
		279.808,142.913 279.808,145.788 302.266,145.788 302.266,154.147 271.695,154.147 271.695,164.23 302.266,164.23 302.266,189.983 
		302.262,190.062 302.266,190.062 302.266,190.222 317.777,190.222 317.777,164.23 348.359,164.23 348.359,154.339 348.359,154.308 
		348.359,154.308 348.359,154.284 348.359,154.257 348.359,154.147 317.777,154.147 317.777,145.788 340.23,145.788 340.23,142.913 
		348.359,142.913 348.359,133.018 348.359,132.987 348.359,132.987 348.359,132.964 348.359,132.937 348.359,132.827 
		333.168,132.827 324.129,132.761 324.148,132.69 324.566,132.136 335.847,117.429 346.41,103.632 351.922,96.526 352.934,95.265 
		352.898,95.265 352.938,95.218 352.847,95.218 352.938,95.105 332.973,95.105 318.148,114.46 316.332,116.819 311.266,123.448 
		310.179,124.839 309.984,125.042 303.707,116.819 301.89,114.46 287.066,95.105 274.695,95.105 268.507,95.054 267.23,95.006 
		267.254,95.042 267.187,95.042 267.242,95.105 267.105,95.105 	"/>
	<path class="st0" d="M352.484,336.511l-82.621,59.89c-7.778,5.508-17.622,7.211-26.801,4.645l-69.867-19.551
		c-4.825-1.351-8.391-5.422-9.102-10.378l-0.703-4.922c-1.153-8.082,5.55-15.121,13.683-14.359l41.758,3.914
		c0.812,0.074,1.582-0.047,2.378-0.051c0.004,0,0.004,0,0.004,0h0.004c14.633-0.023,26.394-12.621,24.766-27.516
		c-0.484-4.422-3.828-7.992-8.211-8.754l-87.168-15.18c-17.722-3.09-35.886,2.098-49.305,14.074L5.347,403.96
		c-6.187,5.524-7.129,14.859-2.176,21.508l37.676,50.539c5.469,7.336,15.973,8.602,23.031,2.774l36.547-30.195
		c8.699-7.188,20.324-9.762,31.25-6.922l105.664,27.473c1.063,0.274,2.141,0.293,3.215,0.457c0.41,0.062,0.82,0.129,1.238,0.176
		c4.453,0.5,8.879,0.039,13.11-1.316c0.175-0.055,0.351-0.106,0.527-0.165c3.106-1.058,6.117-2.422,8.809-4.434l116.359-88.714
		c11.656-8.715,12.875-25.734,2.586-36.024C374.953,330.886,361.988,329.784,352.484,336.511z"/>
</g>
</svg>
